<svg xmlns="http://www.w3.org/2000/svg" width="21" height="22" fill="none"><g filter="url(#a)"><g filter="url(#b)"><path fill="url(#c)" d="M3.769 15.16C-1.387 10.92.563 6.82.11 1.174.09.914.312.698.568.75c3.073.603 8.263 3.027 9.376 8.964.503 2.68.248 6.356.243 10.911 0 .131-.168.185-.246.08-.937-1.262-1.265-1.509-6.172-5.544Z"/><path fill="url(#d)" d="M3.455 14.714C-.965 11.06.512 5.939.333 1.368c-.01-.255.21-.46.46-.409 2.88.594 7.95 3.099 8.98 8.592.464 2.473.43 6.745.438 11 0 .133-.176.188-.255.08-1.006-1.386-2.284-2.432-6.5-5.917Z"/><g opacity=".6"><path fill="url(#e)" d="m10.213 20.638-.012-4.88c-.002-.64-.14-1.282-.45-1.843C6.063 7.27.334 8.704.334 8.704S.418 12.349 3.39 14.7c1.7 1.345 2.205 1.915 3.904 3.26A13.854 13.854 0 0 1 9.94 20.72c.08.113.273.054.273-.083Z"/><path fill="url(#f)" d="m10.213 20.638-.012-4.88c-.002-.64-.14-1.282-.45-1.843C6.063 7.27.334 8.704.334 8.704S.418 12.349 3.39 14.7c1.7 1.345 2.205 1.915 3.904 3.26A13.854 13.854 0 0 1 9.94 20.72c.08.113.273.054.273-.083Z"/></g><path fill="url(#g)" d="M10.037 14.592C8.432 11.102 4.934 8.077.944 8.637c-.067.009-.137-.01-.202 0 .065-.01.135.01.202 0 3.918-.452 7.436 2.56 8.872 6.06.087.191.313.673.313.673l-.063-.405s.066-.182-.03-.373Z"/><path fill="#3F3F3F" d="M10.101 14.543C8.497 11.053 5 8.075 1.01 8.635c-.067.008-.138-.01-.203 0 .065-.01.136.008.203 0 4.002-.55 7.435 2.514 8.871 6.013.086.192.313.674.313.674l-.063-.406s.066-.182-.03-.373Z"/></g><path fill="url(#h)" d="M.598.75c3.073.604 8.262 3.028 9.376 8.964.502 2.676.322 6.495.32 11.048 0 .133-.172.186-.247.076-.047-.069-.095-.134-.14-.198a13.13 13.13 0 0 0-.956-1.162c-.763-.768-2.062-1.831-5.127-4.291C-1.408 10.986.59 6.825.14 1.177.119.916.342.7.598.75Z"/><g filter="url(#i)"><path fill="url(#j)" d="M16.96 15.075C22 11.164 20.47 7.076 20.666 1.052c.006-.199-.131-.376-.331-.374-2.24.028-8.671 3.074-9.385 9.079-.338 2.839-.457 6.355-.348 10.915a.133.133 0 0 0 .235.084c1.128-1.35 1.293-1.931 6.125-5.681Z"/><path fill="url(#k)" d="M16.96 15.075C22 11.164 20.47 7.076 20.666 1.052c.006-.199-.131-.376-.331-.374-2.24.028-8.671 3.074-9.385 9.079-.338 2.839-.457 6.355-.348 10.915a.133.133 0 0 0 .235.084c1.128-1.35 1.293-1.931 6.125-5.681Z"/><path fill="url(#l)" d="M17.398 14.56c4.42-3.654 2.944-8.775 3.122-13.346.01-.254-.21-.46-.459-.408-2.881.593-7.95 3.098-8.98 8.591-.465 2.473-.431 6.745-.438 11 0 .133.176.188.254.08 1.006-1.386 2.284-2.431 6.501-5.917Z"/><path fill="url(#m)" d="m10.64 20.53.013-4.925c.002-.642.14-1.283.45-1.844 3.687-6.644 9.415-5.211 9.415-5.211s-.112 3.729-3.085 6.08c-1.7 1.344-2.072 1.634-3.783 3.08a18.361 18.361 0 0 0-2.75 2.905c-.08.107-.26.05-.26-.085Z"/><path fill="url(#n)" d="m10.64 20.53.013-4.925c.002-.642.14-1.283.45-1.844 3.687-6.644 9.415-5.211 9.415-5.211s-.112 3.729-3.085 6.08c-1.7 1.344-2.072 1.634-3.783 3.08a18.361 18.361 0 0 0-2.75 2.905c-.08.107-.26.05-.26-.085Z"/><path fill="url(#o)" d="M10.82 14.438c1.605-3.49 5.104-6.514 9.093-5.955.067.009.137-.01.203.001-.066-.01-.136.008-.203 0-3.917-.453-7.436 2.56-8.872 6.058-.086.192-.312.675-.312.675l.062-.406s-.066-.182.03-.373Z"/><path fill="url(#p)" d="M10.814 14.35c1.604-3.49 5.041-6.428 9.03-5.868.067.008.138-.01.203 0-.065-.01-.136.009-.203 0-4.002-.55-7.435 2.514-8.87 6.013-.087.192-.313.674-.313.674v-.364s.057-.264.153-.455Z"/></g></g><defs><linearGradient id="c" x1=".482" x2="10.684" y1=".188" y2="21.605" gradientUnits="userSpaceOnUse"><stop stop-color="#F0F0F0"/><stop offset="1" stop-color="#686868"/></linearGradient><linearGradient id="d" x1="-1.231" x2="10.062" y1="2.054" y2="18.905" gradientUnits="userSpaceOnUse"><stop stop-color="#F2F2F2"/><stop offset=".226" stop-color="#D4D4D4"/><stop offset=".73" stop-color="#404040"/><stop offset="1" stop-color="#343434"/></linearGradient><linearGradient id="e" x1="2.241" x2="10.931" y1="8.363" y2="19.485" gradientUnits="userSpaceOnUse"><stop stop-color="#D0CFCF"/><stop offset=".271" stop-color="#D6D6D6"/><stop offset="1" stop-color="#888"/></linearGradient><linearGradient id="g" x1="4.998" x2="5.574" y1="9.11" y2="15.549" gradientUnits="userSpaceOnUse"><stop stop-color="#C8C8C8"/><stop offset="1" stop-color="#828282"/></linearGradient><linearGradient id="l" x1="22.085" x2="8.313" y1="1.9" y2="17.304" gradientUnits="userSpaceOnUse"><stop stop-color="#696969"/><stop offset=".27" stop-color="#868685"/><stop offset=".774" stop-color="#BBB9B9"/></linearGradient><linearGradient id="m" x1="18.613" x2="10.677" y1="8.209" y2="19.399" gradientUnits="userSpaceOnUse"><stop stop-color="#8A8888"/><stop offset=".271" stop-color="#666565"/><stop offset="1" stop-color="#424141"/></linearGradient><linearGradient id="o" x1="10.679" x2="15.562" y1="15.076" y2="8.278" gradientUnits="userSpaceOnUse"><stop stop-color="#3B3B3B"/><stop offset="1" stop-color="#484848" stop-opacity="0"/></linearGradient><linearGradient id="p" x1="10.745" x2="15.493" y1="14.671" y2="8.276" gradientUnits="userSpaceOnUse"><stop stop-color="#DEDEDE"/><stop offset="1" stop-color="#999"/></linearGradient><radialGradient id="f" cx="0" cy="0" r="1" gradientTransform="rotate(84.806 -4 5.605) scale(10.4474 7.79521)" gradientUnits="userSpaceOnUse"><stop stop-color="#DBDBDB"/><stop offset="1" stop-color="#CBCBCA" stop-opacity="0"/></radialGradient><radialGradient id="h" cx="0" cy="0" r="1" gradientTransform="matrix(4.39158 10.2018 -8.64808 3.72262 .866 7.392)" gradientUnits="userSpaceOnUse"><stop stop-color="#fff"/><stop offset="1" stop-color="#A5A5A5" stop-opacity="0"/></radialGradient><radialGradient id="j" cx="0" cy="0" r="1" gradientTransform="matrix(-4.99959 -2.63487 11.73199 -22.26111 20.677 5.77)" gradientUnits="userSpaceOnUse"><stop stop-color="#3A3A3A"/><stop offset="1" stop-color="#fff"/></radialGradient><radialGradient id="k" cx="0" cy="0" r="1" gradientTransform="rotate(101.541 5.187 7.58) scale(13.1706 14.9088)" gradientUnits="userSpaceOnUse"><stop stop-color="#fff"/><stop offset="1" stop-color="#292929" stop-opacity=".75"/></radialGradient><radialGradient id="n" cx="0" cy="0" r="1" gradientTransform="matrix(-.95801 10.31902 -7.6994 -.7148 18.92 9.012)" gradientUnits="userSpaceOnUse"><stop stop-color="#898887"/><stop offset="1" stop-color="#646060" stop-opacity="0"/></radialGradient><filter id="a" width="20.631" height="20.219" x=".107" y=".678" color-interpolation-filters="sRGB" filterUnits="userSpaceOnUse"><feFlood flood-opacity="0" result="BackgroundImageFix"/><feBlend in="SourceGraphic" in2="BackgroundImageFix" result="shape"/><feTurbulence baseFrequency="37.003162384033203 37.003162384033203" numOctaves="3" result="noise" seed="6270" stitchTiles="stitch" type="fractalNoise"/><feColorMatrix in="noise" result="alphaNoise" type="luminanceToAlpha"/><feComponentTransfer in="alphaNoise" result="coloredNoise1"><feFuncA tableValues="0 0 0 0 1 1 1 1 1 1 1 1 1 1 1 1 1 1 1 1 1 1 1 1 1 1 1 1 1 1 1 1 1 1 1 1 1 1 1 1 1 1 1 1 1 1 1 0 0 0 0 0 0 0 0 0 0 0 0 0 0 0 0 0 0 0 0 0 0 0 0 0 0 0 0 0 0 0 0 0 0 0 0 0 0 0 0 0 0 0 0 0 0 0 0 0 0 0 0 0" type="discrete"/></feComponentTransfer><feComposite in="coloredNoise1" in2="shape" operator="in" result="noise1Clipped"/><feFlood flood-color="rgba(0, 0, 0, 0.25)" result="color1Flood"/><feComposite in="color1Flood" in2="noise1Clipped" operator="in" result="color1"/><feMerge result="effect1_noise_1_4656"><feMergeNode in="shape"/><feMergeNode in="color1"/></feMerge></filter><filter id="b" width="10.148" height="20.039" x=".107" y=".741" color-interpolation-filters="sRGB" filterUnits="userSpaceOnUse"><feFlood flood-opacity="0" result="BackgroundImageFix"/><feBlend in="SourceGraphic" in2="BackgroundImageFix" result="shape"/><feTurbulence baseFrequency="24.668773651123047 24.668773651123047" numOctaves="3" result="noise" seed="5092" stitchTiles="stitch" type="fractalNoise"/><feColorMatrix in="noise" result="alphaNoise" type="luminanceToAlpha"/><feComponentTransfer in="alphaNoise" result="coloredNoise1"><feFuncA tableValues="1 1 1 1 1 1 1 1 1 1 1 1 1 1 1 1 1 1 1 1 1 1 1 1 1 1 1 1 1 1 1 1 1 1 1 1 1 1 1 1 1 1 1 1 1 1 1 1 1 1 1 0 0 0 0 0 0 0 0 0 0 0 0 0 0 0 0 0 0 0 0 0 0 0 0 0 0 0 0 0 0 0 0 0 0 0 0 0 0 0 0 0 0 0 0 0 0 0 0 0" type="discrete"/></feComponentTransfer><feComposite in="coloredNoise1" in2="shape" operator="in" result="noise1Clipped"/><feFlood flood-color="rgba(131, 123, 123, 0.25)" result="color1Flood"/><feComposite in="color1Flood" in2="noise1Clipped" operator="in" result="color1"/><feMerge result="effect1_noise_1_4656"><feMergeNode in="shape"/><feMergeNode in="color1"/></feMerge></filter><filter id="i" width="10.176" height="20.125" x="10.563" y=".678" color-interpolation-filters="sRGB" filterUnits="userSpaceOnUse"><feFlood flood-opacity="0" result="BackgroundImageFix"/><feBlend in="SourceGraphic" in2="BackgroundImageFix" result="shape"/><feTurbulence baseFrequency="24.668773651123047 24.668773651123047" numOctaves="3" result="noise" seed="5092" stitchTiles="stitch" type="fractalNoise"/><feColorMatrix in="noise" result="alphaNoise" type="luminanceToAlpha"/><feComponentTransfer in="alphaNoise" result="coloredNoise1"><feFuncA tableValues="1 1 1 1 1 1 1 1 1 1 1 1 1 1 1 1 1 1 1 1 1 1 1 1 1 1 1 1 1 1 1 1 1 1 1 1 1 1 1 1 1 1 1 1 1 1 1 1 1 1 1 0 0 0 0 0 0 0 0 0 0 0 0 0 0 0 0 0 0 0 0 0 0 0 0 0 0 0 0 0 0 0 0 0 0 0 0 0 0 0 0 0 0 0 0 0 0 0 0 0" type="discrete"/></feComponentTransfer><feComposite in="coloredNoise1" in2="shape" operator="in" result="noise1Clipped"/><feFlood flood-color="rgba(131, 123, 123, 0.25)" result="color1Flood"/><feComposite in="color1Flood" in2="noise1Clipped" operator="in" result="color1"/><feMerge result="effect1_noise_1_4656"><feMergeNode in="shape"/><feMergeNode in="color1"/></feMerge></filter></defs></svg>